<?xml version="1.0" encoding="UTF-8"?>
<!DOCTYPE svg PUBLIC "-//W3C//DTD SVG 1.1//EN" "http://www.w3.org/Graphics/SVG/1.1/DTD/svg11.dtd">
<svg version="1.2" width="135.73mm" height="135.73mm" viewBox="0 0 13573 13573" preserveAspectRatio="xMidYMid" fill-rule="evenodd" stroke-width="28.222" stroke-linejoin="round" xmlns="http://www.w3.org/2000/svg" xmlns:ooo="http://xml.openoffice.org/svg/export" xmlns:xlink="http://www.w3.org/1999/xlink" xmlns:presentation="http://sun.com/xmlns/staroffice/presentation" xmlns:smil="http://www.w3.org/2001/SMIL20/" xmlns:anim="urn:oasis:names:tc:opendocument:xmlns:animation:1.0" xml:space="preserve">
 <defs class="ClipPathGroup">
  <clipPath id="presentation_clip_path" clipPathUnits="userSpaceOnUse">
   <rect x="0" y="0" width="13573" height="13573"/>
  </clipPath>
  <clipPath id="presentation_clip_path_shrink" clipPathUnits="userSpaceOnUse">
   <rect x="13" y="13" width="13546" height="13546"/>
  </clipPath>
 </defs>
 <defs class="TextShapeIndex">
  <g ooo:slide="id1" ooo:id-list="id3"/>
 </defs>
 <defs class="EmbeddedBulletChars">
  <g id="bullet-char-template-57356" transform="scale(0.00048828125,-0.00048828125)">
   <path d="M 580,1141 L 1163,571 580,0 -4,571 580,1141 Z"/>
  </g>
  <g id="bullet-char-template-57354" transform="scale(0.00048828125,-0.00048828125)">
   <path d="M 8,1128 L 1137,1128 1137,0 8,0 8,1128 Z"/>
  </g>
  <g id="bullet-char-template-10146" transform="scale(0.00048828125,-0.00048828125)">
   <path d="M 174,0 L 602,739 174,1481 1456,739 174,0 Z M 1358,739 L 309,1346 659,739 1358,739 Z"/>
  </g>
  <g id="bullet-char-template-10132" transform="scale(0.00048828125,-0.00048828125)">
   <path d="M 2015,739 L 1276,0 717,0 1260,543 174,543 174,936 1260,936 717,1481 1274,1481 2015,739 Z"/>
  </g>
  <g id="bullet-char-template-10007" transform="scale(0.00048828125,-0.00048828125)">
   <path d="M 0,-2 C -7,14 -16,27 -25,37 L 356,567 C 262,823 215,952 215,954 215,979 228,992 255,992 264,992 276,990 289,987 310,991 331,999 354,1012 L 381,999 492,748 772,1049 836,1024 860,1049 C 881,1039 901,1025 922,1006 886,937 835,863 770,784 769,783 710,716 594,584 L 774,223 C 774,196 753,168 711,139 L 727,119 C 717,90 699,76 672,76 641,76 570,178 457,381 L 164,-76 C 142,-110 111,-127 72,-127 30,-127 9,-110 8,-76 1,-67 -2,-52 -2,-32 -2,-23 -1,-13 0,-2 Z"/>
  </g>
  <g id="bullet-char-template-10004" transform="scale(0.00048828125,-0.00048828125)">
   <path d="M 285,-33 C 182,-33 111,30 74,156 52,228 41,333 41,471 41,549 55,616 82,672 116,743 169,778 240,778 293,778 328,747 346,684 L 369,508 C 377,444 397,411 428,410 L 1163,1116 C 1174,1127 1196,1133 1229,1133 1271,1133 1292,1118 1292,1087 L 1292,965 C 1292,929 1282,901 1262,881 L 442,47 C 390,-6 338,-33 285,-33 Z"/>
  </g>
  <g id="bullet-char-template-9679" transform="scale(0.00048828125,-0.00048828125)">
   <path d="M 813,0 C 632,0 489,54 383,161 276,268 223,411 223,592 223,773 276,916 383,1023 489,1130 632,1184 813,1184 992,1184 1136,1130 1245,1023 1353,916 1407,772 1407,592 1407,412 1353,268 1245,161 1136,54 992,0 813,0 Z"/>
  </g>
  <g id="bullet-char-template-8226" transform="scale(0.00048828125,-0.00048828125)">
   <path d="M 346,457 C 273,457 209,483 155,535 101,586 74,649 74,723 74,796 101,859 155,911 209,963 273,989 346,989 419,989 480,963 531,910 582,859 608,796 608,723 608,648 583,586 532,535 482,483 420,457 346,457 Z"/>
  </g>
  <g id="bullet-char-template-8211" transform="scale(0.00048828125,-0.00048828125)">
   <path d="M -4,459 L 1135,459 1135,606 -4,606 -4,459 Z"/>
  </g>
  <g id="bullet-char-template-61548" transform="scale(0.00048828125,-0.00048828125)">
   <path d="M 173,740 C 173,903 231,1043 346,1159 462,1274 601,1332 765,1332 928,1332 1067,1274 1183,1159 1299,1043 1357,903 1357,740 1357,577 1299,437 1183,322 1067,206 928,148 765,148 601,148 462,206 346,322 231,437 173,577 173,740 Z"/>
  </g>
 </defs>
 <defs class="TextEmbeddedBitmaps"/>
 <g>
  <g id="id2" class="Master_Slide">
   <g id="bg-id2" class="Background"/>
   <g id="bo-id2" class="BackgroundObjects"/>
  </g>
 </g>
 <g class="SlideGroup">
  <g>
   <g id="container-id1">
    <g id="id1" class="Slide" clip-path="url(#presentation_clip_path)">
     <g class="Page">
      <g class="Graphic">
       <g id="id3">
        <rect class="BoundingBox" stroke="none" fill="none" x="0" y="0" width="13573" height="13573"/>
        <path fill="rgb(255,165,0)" stroke="none" d="M 5225,1601 L 10649,1601 C 10867,1601 11045,1779 11045,1997 L 11045,2791 C 11045,3010 11223,3188 11442,3188 11661,3188 11839,3010 11839,2791 L 11839,1997 C 11839,1341 11305,807 10649,807 L 5225,807 C 5006,807 4828,629 4828,410 4828,191 4651,13 4431,13 4212,13 4035,191 4035,410 4035,1067 4569,1601 5225,1601 L 5225,1601 Z"/>
        <path fill="rgb(255,165,0)" stroke="none" d="M 3638,3188 L 7738,3188 C 7958,3188 8135,3010 8135,2791 8135,2572 7958,2394 7738,2394 L 3638,2394 C 3419,2394 3241,2216 3241,1997 3241,1778 3063,1601 2844,1601 2625,1601 2447,1778 2447,1997 2447,2654 2981,3188 3638,3188 L 3638,3188 Z"/>
        <path fill="rgb(255,165,0)" stroke="none" d="M 4431,5225 L 410,5225 C 191,5225 13,5403 13,5622 L 13,13162 C 13,13381 191,13559 410,13559 L 1230,13559 1230,11045 C 1230,10826 1408,10649 1627,10649 L 3214,10649 C 3434,10649 3611,10826 3611,11045 L 3611,13559 4828,13559 4828,5622 C 4828,5403 4651,5225 4431,5225 L 4431,5225 Z M 2024,9458 C 2024,9677 1846,9855 1627,9855 1408,9855 1230,9677 1230,9458 L 1230,8929 C 1230,8710 1408,8532 1627,8532 1846,8532 2024,8710 2024,8929 L 2024,9458 Z M 2024,7342 C 2024,7561 1846,7738 1627,7738 1408,7738 1230,7561 1230,7342 L 1230,6812 C 1230,6593 1408,6416 1627,6416 1846,6416 2024,6593 2024,6812 L 2024,7342 Z M 3611,9458 C 3611,9677 3434,9855 3214,9855 2995,9855 2818,9677 2818,9458 L 2818,8929 C 2818,8710 2995,8532 3214,8532 3434,8532 3611,8710 3611,8929 L 3611,9458 Z M 3611,7342 C 3611,7561 3434,7738 3214,7738 2995,7738 2818,7561 2818,7342 L 2818,6812 C 2818,6593 2995,6416 3214,6416 3434,6416 3611,6593 3611,6812 L 3611,7342 Z"/>
        <path fill="rgb(255,165,0)" stroke="none" d="M 2024,11442 L 2818,11442 2818,13559 2024,13559 2024,11442 Z"/>
        <path fill="rgb(255,165,0)" stroke="none" d="M 7275,3770 C 7075,3770 6906,3919 6882,4118 L 6446,7606 9031,7606 8595,4118 C 8570,3919 8402,3770 8201,3770 L 7275,3770 Z"/>
        <path fill="rgb(255,165,0)" stroke="none" d="M 10149,7606 L 12735,7606 12299,4118 C 12274,3919 12105,3770 11905,3770 L 10979,3770 C 10779,3770 10610,3919 10586,4118 L 10149,7606 Z"/>
        <path fill="rgb(255,165,0)" stroke="none" d="M 13162,8400 L 5622,8400 5622,13559 7342,13559 7342,11575 C 7342,11355 7519,11178 7738,11178 L 11442,11178 C 11661,11178 11839,11355 11839,11575 L 11839,13559 13162,13559 C 13381,13559 13559,13381 13559,13162 L 13559,8797 C 13559,8578 13381,8400 13162,8400 L 13162,8400 Z M 7738,10384 L 7209,10384 C 6990,10384 6812,10206 6812,9987 6812,9768 6990,9590 7209,9590 L 7738,9590 C 7958,9590 8135,9768 8135,9987 8135,10206 7958,10384 7738,10384 L 7738,10384 Z M 9855,10384 L 9326,10384 C 9107,10384 8929,10206 8929,9987 8929,9768 9107,9590 9326,9590 L 9855,9590 C 10074,9590 10252,9768 10252,9987 10252,10206 10074,10384 9855,10384 L 9855,10384 Z M 11971,10384 L 11442,10384 C 11223,10384 11045,10206 11045,9987 11045,9768 11223,9590 11442,9590 L 11971,9590 C 12191,9590 12368,9768 12368,9987 12368,10206 12191,10384 11971,10384 L 11971,10384 Z"/>
        <path fill="rgb(255,165,0)" stroke="none" d="M 8135,11971 L 11045,11971 11045,13559 8135,13559 8135,11971 Z"/>
       </g>
      </g>
     </g>
    </g>
   </g>
  </g>
 </g>
</svg>