<?xml version="1.0" encoding="UTF-8"?>
<!DOCTYPE svg PUBLIC "-//W3C//DTD SVG 1.1//EN" "http://www.w3.org/Graphics/SVG/1.1/DTD/svg11.dtd">
<svg version="1.2" width="6.35mm" height="6.35mm" viewBox="0 0 635 635" preserveAspectRatio="xMidYMid" fill-rule="evenodd" stroke-width="28.222" stroke-linejoin="round" xmlns="http://www.w3.org/2000/svg" xmlns:ooo="http://xml.openoffice.org/svg/export" xmlns:xlink="http://www.w3.org/1999/xlink" xmlns:presentation="http://sun.com/xmlns/staroffice/presentation" xmlns:smil="http://www.w3.org/2001/SMIL20/" xmlns:anim="urn:oasis:names:tc:opendocument:xmlns:animation:1.0" xml:space="preserve">
 <defs class="ClipPathGroup">
  <clipPath id="presentation_clip_path" clipPathUnits="userSpaceOnUse">
   <rect x="0" y="0" width="635" height="635"/>
  </clipPath>
  <clipPath id="presentation_clip_path_shrink" clipPathUnits="userSpaceOnUse">
   <rect x="0" y="0" width="634" height="634"/>
  </clipPath>
 </defs>
 <defs class="TextShapeIndex">
  <g ooo:slide="id1" ooo:id-list="id3"/>
 </defs>
 <defs class="EmbeddedBulletChars">
  <g id="bullet-char-template-57356" transform="scale(0.00048828125,-0.00048828125)">
   <path d="M 580,1141 L 1163,571 580,0 -4,571 580,1141 Z"/>
  </g>
  <g id="bullet-char-template-57354" transform="scale(0.00048828125,-0.00048828125)">
   <path d="M 8,1128 L 1137,1128 1137,0 8,0 8,1128 Z"/>
  </g>
  <g id="bullet-char-template-10146" transform="scale(0.00048828125,-0.00048828125)">
   <path d="M 174,0 L 602,739 174,1481 1456,739 174,0 Z M 1358,739 L 309,1346 659,739 1358,739 Z"/>
  </g>
  <g id="bullet-char-template-10132" transform="scale(0.00048828125,-0.00048828125)">
   <path d="M 2015,739 L 1276,0 717,0 1260,543 174,543 174,936 1260,936 717,1481 1274,1481 2015,739 Z"/>
  </g>
  <g id="bullet-char-template-10007" transform="scale(0.00048828125,-0.00048828125)">
   <path d="M 0,-2 C -7,14 -16,27 -25,37 L 356,567 C 262,823 215,952 215,954 215,979 228,992 255,992 264,992 276,990 289,987 310,991 331,999 354,1012 L 381,999 492,748 772,1049 836,1024 860,1049 C 881,1039 901,1025 922,1006 886,937 835,863 770,784 769,783 710,716 594,584 L 774,223 C 774,196 753,168 711,139 L 727,119 C 717,90 699,76 672,76 641,76 570,178 457,381 L 164,-76 C 142,-110 111,-127 72,-127 30,-127 9,-110 8,-76 1,-67 -2,-52 -2,-32 -2,-23 -1,-13 0,-2 Z"/>
  </g>
  <g id="bullet-char-template-10004" transform="scale(0.00048828125,-0.00048828125)">
   <path d="M 285,-33 C 182,-33 111,30 74,156 52,228 41,333 41,471 41,549 55,616 82,672 116,743 169,778 240,778 293,778 328,747 346,684 L 369,508 C 377,444 397,411 428,410 L 1163,1116 C 1174,1127 1196,1133 1229,1133 1271,1133 1292,1118 1292,1087 L 1292,965 C 1292,929 1282,901 1262,881 L 442,47 C 390,-6 338,-33 285,-33 Z"/>
  </g>
  <g id="bullet-char-template-9679" transform="scale(0.00048828125,-0.00048828125)">
   <path d="M 813,0 C 632,0 489,54 383,161 276,268 223,411 223,592 223,773 276,916 383,1023 489,1130 632,1184 813,1184 992,1184 1136,1130 1245,1023 1353,916 1407,772 1407,592 1407,412 1353,268 1245,161 1136,54 992,0 813,0 Z"/>
  </g>
  <g id="bullet-char-template-8226" transform="scale(0.00048828125,-0.00048828125)">
   <path d="M 346,457 C 273,457 209,483 155,535 101,586 74,649 74,723 74,796 101,859 155,911 209,963 273,989 346,989 419,989 480,963 531,910 582,859 608,796 608,723 608,648 583,586 532,535 482,483 420,457 346,457 Z"/>
  </g>
  <g id="bullet-char-template-8211" transform="scale(0.00048828125,-0.00048828125)">
   <path d="M -4,459 L 1135,459 1135,606 -4,606 -4,459 Z"/>
  </g>
  <g id="bullet-char-template-61548" transform="scale(0.00048828125,-0.00048828125)">
   <path d="M 173,740 C 173,903 231,1043 346,1159 462,1274 601,1332 765,1332 928,1332 1067,1274 1183,1159 1299,1043 1357,903 1357,740 1357,577 1299,437 1183,322 1067,206 928,148 765,148 601,148 462,206 346,322 231,437 173,577 173,740 Z"/>
  </g>
 </defs>
 <defs class="TextEmbeddedBitmaps"/>
 <g>
  <g id="id2" class="Master_Slide">
   <g id="bg-id2" class="Background"/>
   <g id="bo-id2" class="BackgroundObjects"/>
  </g>
 </g>
 <g class="SlideGroup">
  <g>
   <g id="container-id1">
    <g id="id1" class="Slide" clip-path="url(#presentation_clip_path)">
     <g class="Page">
      <g class="Graphic">
       <g id="id3">
        <rect class="BoundingBox" stroke="none" fill="none" x="0" y="0" width="635" height="635"/>
        <defs>
         <clipPath id="clip_path_1" clipPathUnits="userSpaceOnUse">
          <path d="M 0,0 L 634,0 634,634 0,634 0,0 Z"/>
         </clipPath>
        </defs>
        <g clip-path="url(#clip_path_1)">
         <path fill="rgb(255,165,0)" stroke="none" d="M 54,5 C 40,3 27,7 16,16 6,25 0,38 0,51 L 0,608 C 0,622 12,634 26,634 L 112,634 112,495 C 112,470 133,449 158,449 L 225,449 C 250,449 271,470 271,495 L 271,634 383,634 383,95 C 383,72 367,53 344,49 L 54,5 Z M 145,390 L 106,390 C 95,390 86,381 86,370 86,359 95,350 106,350 L 145,350 C 156,350 165,359 165,370 165,381 156,390 145,390 Z M 145,310 L 106,310 C 95,310 86,302 86,291 86,280 95,271 106,271 L 145,271 C 156,271 165,280 165,291 165,302 156,310 145,310 Z M 145,231 L 106,231 C 95,231 86,222 86,211 86,200 95,192 106,192 L 145,192 C 156,192 165,200 165,211 165,222 156,231 145,231 Z M 145,152 L 106,152 C 95,152 86,143 86,132 86,121 95,112 106,112 L 145,112 C 156,112 165,121 165,132 165,143 156,152 145,152 Z M 277,390 L 238,390 C 227,390 218,381 218,370 218,359 227,350 238,350 L 277,350 C 288,350 297,359 297,370 297,381 288,390 277,390 Z M 277,310 L 238,310 C 227,310 218,302 218,291 218,280 227,271 238,271 L 277,271 C 288,271 297,280 297,291 297,302 288,310 277,310 Z M 277,231 L 238,231 C 227,231 218,222 218,211 218,200 227,192 238,192 L 277,192 C 288,192 297,200 297,211 297,222 288,231 277,231 Z M 277,152 L 238,152 C 227,152 218,143 218,132 218,121 227,112 238,112 L 277,112 C 288,112 297,121 297,132 297,143 288,152 277,152 Z"/>
         <path fill="rgb(255,165,0)" stroke="none" d="M 409,247 L 409,634 588,634 C 613,634 634,613 634,588 L 634,332 C 634,310 619,291 598,286 L 409,247 Z M 535,555 L 495,555 C 484,555 475,546 475,535 475,524 484,515 495,515 L 535,515 C 546,515 555,524 555,535 555,546 546,555 535,555 Z M 535,475 L 495,475 C 484,475 475,467 475,456 475,445 484,436 495,436 L 535,436 C 546,436 555,445 555,456 555,467 546,475 535,475 Z M 535,396 L 495,396 C 484,396 475,387 475,376 475,366 484,357 495,357 L 535,357 C 546,357 555,366 555,376 555,387 546,396 535,396 Z"/>
        </g>
       </g>
      </g>
     </g>
    </g>
   </g>
  </g>
 </g>
</svg>